<?xml version="1.0" encoding="utf-8" standalone="no"?>
<!DOCTYPE svg PUBLIC "-//W3C//DTD SVG 1.1//EN"
  "http://www.w3.org/Graphics/SVG/1.1/DTD/svg11.dtd">
<svg xmlns:xlink="http://www.w3.org/1999/xlink" width="1387.8pt" height="808.590312pt" viewBox="0 0 1387.8 808.590312" xmlns="http://www.w3.org/2000/svg" version="1.1">
 <metadata>
  <rdf:RDF xmlns:dc="http://purl.org/dc/elements/1.1/" xmlns:cc="http://creativecommons.org/ns#" xmlns:rdf="http://www.w3.org/1999/02/22-rdf-syntax-ns#">
   <cc:Work>
    <dc:type rdf:resource="http://purl.org/dc/dcmitype/StillImage"/>
    <dc:date>2025-10-12T23:37:54.467847</dc:date>
    <dc:format>image/svg+xml</dc:format>
    <dc:creator>
     <cc:Agent>
      <dc:title>Matplotlib v3.10.6, https://matplotlib.org/</dc:title>
     </cc:Agent>
    </dc:creator>
   </cc:Work>
  </rdf:RDF>
 </metadata>
 <defs>
  <style type="text/css">*{stroke-linejoin: round; stroke-linecap: butt}</style>
 </defs>
 <g id="figure_1">
  <g id="patch_1">
   <path d="M 0 808.590312 
L 1387.8 808.590312 
L 1387.8 0 
L 0 0 
z
"/>
  </g>
  <g id="axes_1">
   <g id="patch_2">
    <path d="M 41.4 771.72 
L 1380.6 771.72 
L 1380.6 23.28 
L 41.4 23.28 
z
"/>
   </g>
   <g id="patch_3">
    <path d="M 102.272727 771.72 
L 140.023256 771.72 
L 140.023256 768.094868 
L 102.272727 768.094868 
z
" clip-path="url(#p4b56497fe4)" style="fill: #fff5f0"/>
   </g>
   <g id="patch_4">
    <path d="M 149.460888 771.72 
L 187.211416 771.72 
L 187.211416 766.013553 
L 149.460888 766.013553 
z
" clip-path="url(#p4b56497fe4)" style="fill: #fff4ef"/>
   </g>
   <g id="patch_5">
    <path d="M 196.649049 771.72 
L 234.399577 771.72 
L 234.399577 766.779358 
L 196.649049 766.779358 
z
" clip-path="url(#p4b56497fe4)" style="fill: #fff4ef"/>
   </g>
   <g id="patch_6">
    <path d="M 243.837209 771.72 
L 281.587738 771.72 
L 281.587738 58.92 
L 243.837209 58.92 
z
" clip-path="url(#p4b56497fe4)" style="fill: #67000d"/>
   </g>
   <g id="patch_7">
    <path d="M 291.02537 771.72 
L 328.775899 771.72 
L 328.775899 761.524413 
L 291.02537 761.524413 
z
" clip-path="url(#p4b56497fe4)" style="fill: #fff3ed"/>
   </g>
   <g id="patch_8">
    <path d="M 338.213531 771.72 
L 375.964059 771.72 
L 375.964059 763.635697 
L 338.213531 763.635697 
z
" clip-path="url(#p4b56497fe4)" style="fill: #fff4ee"/>
   </g>
   <g id="patch_9">
    <path d="M 385.401691 771.72 
L 423.15222 771.72 
L 423.15222 759.592771 
L 385.401691 759.592771 
z
" clip-path="url(#p4b56497fe4)" style="fill: #fff3ed"/>
   </g>
   <g id="patch_10">
    <path d="M 432.589852 771.72 
L 470.340381 771.72 
L 470.340381 762.706748 
L 432.589852 762.706748 
z
" clip-path="url(#p4b56497fe4)" style="fill: #fff4ee"/>
   </g>
   <g id="patch_11">
    <path d="M 479.778013 771.72 
L 517.528541 771.72 
L 517.528541 769.041931 
L 479.778013 769.041931 
z
" clip-path="url(#p4b56497fe4)" style="fill: #fff5f0"/>
   </g>
   <g id="patch_12">
    <path d="M 526.966173 771.72 
L 564.716702 771.72 
L 564.716702 767.896287 
L 526.966173 767.896287 
z
" clip-path="url(#p4b56497fe4)" style="fill: #fff5f0"/>
   </g>
   <g id="patch_13">
    <path d="M 574.154334 771.72 
L 611.904863 771.72 
L 611.904863 767.105986 
L 574.154334 767.105986 
z
" clip-path="url(#p4b56497fe4)" style="fill: #fff4ef"/>
   </g>
   <g id="patch_14">
    <path d="M 621.342495 771.72 
L 659.093023 771.72 
L 659.093023 767.090185 
L 621.342495 767.090185 
z
" clip-path="url(#p4b56497fe4)" style="fill: #fff4ef"/>
   </g>
   <g id="patch_15">
    <path d="M 668.530655 771.72 
L 706.281184 771.72 
L 706.281184 765.081515 
L 668.530655 765.081515 
z
" clip-path="url(#p4b56497fe4)" style="fill: #fff4ef"/>
   </g>
   <g id="patch_16">
    <path d="M 715.718816 771.72 
L 753.469345 771.72 
L 753.469345 749.93878 
L 715.718816 749.93878 
z
" clip-path="url(#p4b56497fe4)" style="fill: #fff0e9"/>
   </g>
   <g id="patch_17">
    <path d="M 762.906977 771.72 
L 800.657505 771.72 
L 800.657505 762.107066 
L 762.906977 762.107066 
z
" clip-path="url(#p4b56497fe4)" style="fill: #fff4ee"/>
   </g>
   <g id="patch_18">
    <path d="M 810.095137 771.72 
L 847.845666 771.72 
L 847.845666 769.445313 
L 810.095137 769.445313 
z
" clip-path="url(#p4b56497fe4)" style="fill: #fff5f0"/>
   </g>
   <g id="patch_19">
    <path d="M 857.283298 771.72 
L 895.033827 771.72 
L 895.033827 748.266729 
L 857.283298 748.266729 
z
" clip-path="url(#p4b56497fe4)" style="fill: #fff0e9"/>
   </g>
   <g id="patch_20">
    <path d="M 904.471459 771.72 
L 942.221987 771.72 
L 942.221987 757.546665 
L 904.471459 757.546665 
z
" clip-path="url(#p4b56497fe4)" style="fill: #fff2ec"/>
   </g>
   <g id="patch_21">
    <path d="M 951.659619 771.72 
L 989.410148 771.72 
L 989.410148 761.289233 
L 951.659619 761.289233 
z
" clip-path="url(#p4b56497fe4)" style="fill: #fff3ed"/>
   </g>
   <g id="patch_22">
    <path d="M 998.84778 771.72 
L 1036.598309 771.72 
L 1036.598309 767.246085 
L 998.84778 767.246085 
z
" clip-path="url(#p4b56497fe4)" style="fill: #fff5f0"/>
   </g>
   <g id="patch_23">
    <path d="M 1046.035941 771.72 
L 1083.786469 771.72 
L 1083.786469 768.084717 
L 1046.035941 768.084717 
z
" clip-path="url(#p4b56497fe4)" style="fill: #fff5f0"/>
   </g>
   <g id="patch_24">
    <path d="M 1093.224101 771.72 
L 1130.97463 771.72 
L 1130.97463 763.893875 
L 1093.224101 763.893875 
z
" clip-path="url(#p4b56497fe4)" style="fill: #fff4ee"/>
   </g>
   <g id="patch_25">
    <path d="M 1140.412262 771.72 
L 1178.162791 771.72 
L 1178.162791 767.899757 
L 1140.412262 767.899757 
z
" clip-path="url(#p4b56497fe4)" style="fill: #fff5f0"/>
   </g>
   <g id="patch_26">
    <path d="M 1187.600423 771.72 
L 1225.350951 771.72 
L 1225.350951 752.930639 
L 1187.600423 752.930639 
z
" clip-path="url(#p4b56497fe4)" style="fill: #fff1ea"/>
   </g>
   <g id="patch_27">
    <path d="M 1234.788584 771.72 
L 1272.539112 771.72 
L 1272.539112 769.933863 
L 1234.788584 769.933863 
z
" clip-path="url(#p4b56497fe4)" style="fill: #fff5f0"/>
   </g>
   <g id="patch_28">
    <path d="M 1281.976744 771.72 
L 1319.727273 771.72 
L 1319.727273 756.655572 
L 1281.976744 756.655572 
z
" clip-path="url(#p4b56497fe4)" style="fill: #fff2ec"/>
   </g>
   <g id="matplotlib.axis_1">
    <g id="xtick_1">
     <g id="line2d_1">
      <defs>
       <path id="m89cb4b0393" d="M 0 0 
L 0 3.5 
" style="stroke: #ffffff; stroke-width: 0.8"/>
      </defs>
      <g>
       <use xlink:href="#m89cb4b0393" x="121.147992" y="771.72" style="fill: #ffffff; stroke: #ffffff; stroke-width: 0.8"/>
      </g>
     </g>
     <g id="text_1">
      <!-- 0 -->
      <g style="fill: #ffffff" transform="translate(118.147992 786.02) scale(0.1 -0.1)">
       <defs>
        <path id="JetBrainsMono-Regular-30" d="M 1920 -64 
Q 1491 -64 1174 105 
Q 858 275 685 585 
Q 512 896 512 1312 
L 512 3360 
Q 512 3782 685 4089 
Q 858 4397 1174 4566 
Q 1491 4736 1920 4736 
Q 2355 4736 2668 4566 
Q 2982 4397 3155 4089 
Q 3328 3782 3328 3360 
L 3328 1312 
Q 3328 896 3155 585 
Q 2982 275 2665 105 
Q 2349 -64 1920 -64 
z
M 1920 429 
Q 2304 429 2537 675 
Q 2771 922 2771 1312 
L 2771 3360 
Q 2771 3750 2537 3996 
Q 2304 4243 1920 4243 
Q 1536 4243 1302 3996 
Q 1069 3750 1069 3360 
L 1069 1312 
Q 1069 922 1302 675 
Q 1536 429 1920 429 
z
M 1920 1958 
Q 1747 1958 1641 2067 
Q 1536 2176 1536 2355 
Q 1536 2528 1641 2633 
Q 1747 2739 1920 2739 
Q 2093 2739 2198 2633 
Q 2304 2528 2304 2355 
Q 2304 2176 2198 2067 
Q 2093 1958 1920 1958 
z
" transform="scale(0.015625)"/>
       </defs>
       <use xlink:href="#JetBrainsMono-Regular-30"/>
      </g>
     </g>
    </g>
    <g id="xtick_2">
     <g id="line2d_2">
      <g>
       <use xlink:href="#m89cb4b0393" x="168.336152" y="771.72" style="fill: #ffffff; stroke: #ffffff; stroke-width: 0.8"/>
      </g>
     </g>
     <g id="text_2">
      <!-- 1 -->
      <g style="fill: #ffffff" transform="translate(165.336152 786.02) scale(0.1 -0.1)">
       <defs>
        <path id="JetBrainsMono-Regular-31" d="M 576 0 
L 576 525 
L 1843 525 
L 1843 4192 
L 576 3245 
L 576 3885 
L 1632 4672 
L 2419 4672 
L 2419 525 
L 3456 525 
L 3456 0 
L 576 0 
z
" transform="scale(0.015625)"/>
       </defs>
       <use xlink:href="#JetBrainsMono-Regular-31"/>
      </g>
     </g>
    </g>
    <g id="xtick_3">
     <g id="line2d_3">
      <g>
       <use xlink:href="#m89cb4b0393" x="215.524313" y="771.72" style="fill: #ffffff; stroke: #ffffff; stroke-width: 0.8"/>
      </g>
     </g>
     <g id="text_3">
      <!-- 2 -->
      <g style="fill: #ffffff" transform="translate(212.524313 786.02) scale(0.1 -0.1)">
       <defs>
        <path id="JetBrainsMono-Regular-32" d="M 589 0 
L 589 589 
L 2016 2106 
Q 2381 2496 2547 2800 
Q 2714 3104 2714 3386 
Q 2714 3776 2499 4000 
Q 2285 4224 1914 4224 
Q 1504 4224 1270 3993 
Q 1037 3763 1037 3360 
L 461 3360 
Q 474 3782 656 4092 
Q 838 4403 1161 4569 
Q 1485 4736 1914 4736 
Q 2336 4736 2646 4573 
Q 2957 4410 3123 4109 
Q 3290 3808 3290 3392 
Q 3290 2995 3078 2604 
Q 2867 2214 2387 1715 
L 1235 525 
L 3366 525 
L 3366 0 
L 589 0 
z
" transform="scale(0.015625)"/>
       </defs>
       <use xlink:href="#JetBrainsMono-Regular-32"/>
      </g>
     </g>
    </g>
    <g id="xtick_4">
     <g id="line2d_4">
      <g>
       <use xlink:href="#m89cb4b0393" x="262.712474" y="771.72" style="fill: #ffffff; stroke: #ffffff; stroke-width: 0.8"/>
      </g>
     </g>
     <g id="text_4">
      <!-- 3 -->
      <g style="fill: #ffffff" transform="translate(259.712474 786.02) scale(0.1 -0.1)">
       <defs>
        <path id="JetBrainsMono-Regular-33" d="M 1850 -64 
Q 1427 -64 1110 105 
Q 794 275 621 576 
Q 448 877 448 1280 
L 1024 1280 
Q 1024 890 1245 669 
Q 1466 448 1856 448 
Q 2253 448 2470 678 
Q 2688 909 2688 1280 
L 2688 1613 
Q 2688 2010 2470 2227 
Q 2253 2445 1856 2445 
L 1376 2445 
L 1376 3021 
L 2534 4147 
L 640 4147 
L 640 4672 
L 3117 4672 
L 3117 4096 
L 1869 2886 
L 1869 2957 
Q 2509 2957 2886 2592 
Q 3264 2227 3264 1613 
L 3264 1280 
Q 3264 877 3088 576 
Q 2912 275 2592 105 
Q 2272 -64 1850 -64 
z
" transform="scale(0.015625)"/>
       </defs>
       <use xlink:href="#JetBrainsMono-Regular-33"/>
      </g>
     </g>
    </g>
    <g id="xtick_5">
     <g id="line2d_5">
      <g>
       <use xlink:href="#m89cb4b0393" x="309.900634" y="771.72" style="fill: #ffffff; stroke: #ffffff; stroke-width: 0.8"/>
      </g>
     </g>
     <g id="text_5">
      <!-- 4 -->
      <g style="fill: #ffffff" transform="translate(306.900634 786.02) scale(0.1 -0.1)">
       <defs>
        <path id="JetBrainsMono-Regular-34" d="M 2624 0 
L 2624 1024 
L 512 1024 
L 512 1926 
L 2362 4672 
L 2989 4672 
L 1088 1805 
L 1088 1549 
L 2624 1549 
L 2624 2688 
L 3200 2688 
L 3200 0 
L 2624 0 
z
" transform="scale(0.015625)"/>
       </defs>
       <use xlink:href="#JetBrainsMono-Regular-34"/>
      </g>
     </g>
    </g>
    <g id="xtick_6">
     <g id="line2d_6">
      <g>
       <use xlink:href="#m89cb4b0393" x="357.088795" y="771.72" style="fill: #ffffff; stroke: #ffffff; stroke-width: 0.8"/>
      </g>
     </g>
     <g id="text_6">
      <!-- 5 -->
      <g style="fill: #ffffff" transform="translate(354.088795 786.02) scale(0.1 -0.1)">
       <defs>
        <path id="JetBrainsMono-Regular-35" d="M 1907 -64 
Q 1338 -64 973 230 
Q 608 525 544 1024 
L 1120 1024 
Q 1152 749 1357 598 
Q 1562 448 1914 448 
Q 2317 448 2518 665 
Q 2720 883 2720 1280 
L 2720 1734 
Q 2720 2131 2518 2348 
Q 2317 2566 1920 2566 
Q 1670 2566 1484 2435 
Q 1299 2304 1216 2086 
L 640 2086 
L 672 4672 
L 3130 4672 
L 3130 4147 
L 1229 4147 
L 1210 2592 
L 1389 2592 
L 1210 2426 
Q 1210 2726 1450 2899 
Q 1690 3072 2093 3072 
Q 2662 3078 2979 2723 
Q 3296 2368 3296 1734 
L 3296 1280 
Q 3296 659 2931 297 
Q 2566 -64 1907 -64 
z
" transform="scale(0.015625)"/>
       </defs>
       <use xlink:href="#JetBrainsMono-Regular-35"/>
      </g>
     </g>
    </g>
    <g id="xtick_7">
     <g id="line2d_7">
      <g>
       <use xlink:href="#m89cb4b0393" x="404.276956" y="771.72" style="fill: #ffffff; stroke: #ffffff; stroke-width: 0.8"/>
      </g>
     </g>
     <g id="text_7">
      <!-- 6 -->
      <g style="fill: #ffffff" transform="translate(401.276956 786.02) scale(0.1 -0.1)">
       <defs>
        <path id="JetBrainsMono-Regular-36" d="M 1926 -64 
Q 1478 -64 1142 125 
Q 806 314 620 653 
Q 435 992 435 1440 
Q 435 1792 534 2131 
Q 634 2470 832 2784 
L 2003 4672 
L 2643 4672 
L 1318 2547 
L 1344 2528 
Q 1466 2707 1677 2803 
Q 1888 2899 2150 2899 
Q 2534 2899 2816 2720 
Q 3098 2541 3251 2214 
Q 3405 1888 3405 1440 
Q 3405 992 3219 653 
Q 3034 314 2704 125 
Q 2374 -64 1926 -64 
z
M 1920 448 
Q 2330 448 2579 720 
Q 2829 992 2829 1440 
Q 2829 1888 2579 2160 
Q 2330 2432 1920 2432 
Q 1510 2432 1260 2160 
Q 1011 1888 1011 1440 
Q 1011 992 1260 720 
Q 1510 448 1920 448 
z
" transform="scale(0.015625)"/>
       </defs>
       <use xlink:href="#JetBrainsMono-Regular-36"/>
      </g>
     </g>
    </g>
    <g id="xtick_8">
     <g id="line2d_8">
      <g>
       <use xlink:href="#m89cb4b0393" x="451.465116" y="771.72" style="fill: #ffffff; stroke: #ffffff; stroke-width: 0.8"/>
      </g>
     </g>
     <g id="text_8">
      <!-- 7 -->
      <g style="fill: #ffffff" transform="translate(448.465116 786.02) scale(0.1 -0.1)">
       <defs>
        <path id="JetBrainsMono-Regular-37" d="M 1184 0 
L 2854 4147 
L 1088 4147 
L 1088 3456 
L 512 3456 
L 512 4672 
L 3424 4672 
L 3424 4109 
L 1805 0 
L 1184 0 
z
" transform="scale(0.015625)"/>
       </defs>
       <use xlink:href="#JetBrainsMono-Regular-37"/>
      </g>
     </g>
    </g>
    <g id="xtick_9">
     <g id="line2d_9">
      <g>
       <use xlink:href="#m89cb4b0393" x="498.653277" y="771.72" style="fill: #ffffff; stroke: #ffffff; stroke-width: 0.8"/>
      </g>
     </g>
     <g id="text_9">
      <!-- 8 -->
      <g style="fill: #ffffff" transform="translate(495.653277 786.02) scale(0.1 -0.1)">
       <defs>
        <path id="JetBrainsMono-Regular-38" d="M 1920 -64 
Q 1491 -64 1174 86 
Q 858 237 685 518 
Q 512 800 512 1178 
Q 512 1594 739 1894 
Q 966 2195 1459 2432 
L 2080 2733 
Q 2362 2867 2515 3084 
Q 2669 3302 2669 3565 
Q 2669 3872 2467 4051 
Q 2266 4230 1920 4230 
Q 1574 4230 1372 4048 
Q 1171 3866 1171 3558 
Q 1171 3302 1321 3084 
Q 1472 2867 1734 2739 
L 2355 2445 
Q 2867 2208 3097 1904 
Q 3328 1600 3328 1178 
Q 3328 608 2947 272 
Q 2566 -64 1920 -64 
z
M 1920 448 
Q 2310 448 2537 649 
Q 2765 851 2765 1190 
Q 2765 1466 2617 1690 
Q 2470 1914 2195 2048 
L 1581 2349 
Q 1069 2598 838 2886 
Q 608 3174 608 3578 
Q 608 3936 768 4198 
Q 928 4461 1222 4601 
Q 1517 4742 1920 4742 
Q 2323 4742 2617 4601 
Q 2912 4461 3072 4198 
Q 3232 3936 3232 3578 
Q 3232 3174 3001 2889 
Q 2771 2605 2240 2342 
L 1626 2042 
Q 1363 1914 1219 1693 
Q 1075 1472 1075 1203 
Q 1075 858 1302 653 
Q 1530 448 1920 448 
z
" transform="scale(0.015625)"/>
       </defs>
       <use xlink:href="#JetBrainsMono-Regular-38"/>
      </g>
     </g>
    </g>
    <g id="xtick_10">
     <g id="line2d_10">
      <g>
       <use xlink:href="#m89cb4b0393" x="545.841438" y="771.72" style="fill: #ffffff; stroke: #ffffff; stroke-width: 0.8"/>
      </g>
     </g>
     <g id="text_10">
      <!-- 9 -->
      <g style="fill: #ffffff" transform="translate(542.841438 786.02) scale(0.1 -0.1)">
       <defs>
        <path id="JetBrainsMono-Regular-39" d="M 1197 0 
L 2522 2125 
L 2496 2144 
Q 2374 1965 2163 1869 
Q 1952 1773 1690 1773 
Q 1312 1773 1027 1952 
Q 742 2131 588 2460 
Q 435 2790 435 3232 
Q 435 3686 620 4022 
Q 806 4358 1139 4547 
Q 1472 4736 1914 4736 
Q 2362 4736 2698 4547 
Q 3034 4358 3219 4022 
Q 3405 3686 3405 3232 
Q 3405 2880 3305 2541 
Q 3206 2202 3008 1888 
L 1837 0 
L 1197 0 
z
M 1920 2240 
Q 2330 2240 2579 2512 
Q 2829 2784 2829 3232 
Q 2829 3680 2579 3952 
Q 2330 4224 1920 4224 
Q 1510 4224 1260 3952 
Q 1011 3680 1011 3232 
Q 1011 2784 1260 2512 
Q 1510 2240 1920 2240 
z
" transform="scale(0.015625)"/>
       </defs>
       <use xlink:href="#JetBrainsMono-Regular-39"/>
      </g>
     </g>
    </g>
    <g id="xtick_11">
     <g id="line2d_11">
      <g>
       <use xlink:href="#m89cb4b0393" x="593.029598" y="771.72" style="fill: #ffffff; stroke: #ffffff; stroke-width: 0.8"/>
      </g>
     </g>
     <g id="text_11">
      <!-- 10 -->
      <g style="fill: #ffffff" transform="translate(587.029598 786.02) scale(0.1 -0.1)">
       <use xlink:href="#JetBrainsMono-Regular-31"/>
       <use xlink:href="#JetBrainsMono-Regular-30" transform="translate(59.999985 0)"/>
      </g>
     </g>
    </g>
    <g id="xtick_12">
     <g id="line2d_12">
      <g>
       <use xlink:href="#m89cb4b0393" x="640.217759" y="771.72" style="fill: #ffffff; stroke: #ffffff; stroke-width: 0.8"/>
      </g>
     </g>
     <g id="text_12">
      <!-- 11 -->
      <g style="fill: #ffffff" transform="translate(634.217759 786.02) scale(0.1 -0.1)">
       <use xlink:href="#JetBrainsMono-Regular-31"/>
       <use xlink:href="#JetBrainsMono-Regular-31" transform="translate(59.999985 0)"/>
      </g>
     </g>
    </g>
    <g id="xtick_13">
     <g id="line2d_13">
      <g>
       <use xlink:href="#m89cb4b0393" x="687.40592" y="771.72" style="fill: #ffffff; stroke: #ffffff; stroke-width: 0.8"/>
      </g>
     </g>
     <g id="text_13">
      <!-- 12 -->
      <g style="fill: #ffffff" transform="translate(681.40592 786.02) scale(0.1 -0.1)">
       <use xlink:href="#JetBrainsMono-Regular-31"/>
       <use xlink:href="#JetBrainsMono-Regular-32" transform="translate(59.999985 0)"/>
      </g>
     </g>
    </g>
    <g id="xtick_14">
     <g id="line2d_14">
      <g>
       <use xlink:href="#m89cb4b0393" x="734.59408" y="771.72" style="fill: #ffffff; stroke: #ffffff; stroke-width: 0.8"/>
      </g>
     </g>
     <g id="text_14">
      <!-- 13 -->
      <g style="fill: #ffffff" transform="translate(728.59408 786.02) scale(0.1 -0.1)">
       <use xlink:href="#JetBrainsMono-Regular-31"/>
       <use xlink:href="#JetBrainsMono-Regular-33" transform="translate(59.999985 0)"/>
      </g>
     </g>
    </g>
    <g id="xtick_15">
     <g id="line2d_15">
      <g>
       <use xlink:href="#m89cb4b0393" x="781.782241" y="771.72" style="fill: #ffffff; stroke: #ffffff; stroke-width: 0.8"/>
      </g>
     </g>
     <g id="text_15">
      <!-- 14 -->
      <g style="fill: #ffffff" transform="translate(775.782241 786.02) scale(0.1 -0.1)">
       <use xlink:href="#JetBrainsMono-Regular-31"/>
       <use xlink:href="#JetBrainsMono-Regular-34" transform="translate(59.999985 0)"/>
      </g>
     </g>
    </g>
    <g id="xtick_16">
     <g id="line2d_16">
      <g>
       <use xlink:href="#m89cb4b0393" x="828.970402" y="771.72" style="fill: #ffffff; stroke: #ffffff; stroke-width: 0.8"/>
      </g>
     </g>
     <g id="text_16">
      <!-- 15 -->
      <g style="fill: #ffffff" transform="translate(822.970402 786.02) scale(0.1 -0.1)">
       <use xlink:href="#JetBrainsMono-Regular-31"/>
       <use xlink:href="#JetBrainsMono-Regular-35" transform="translate(59.999985 0)"/>
      </g>
     </g>
    </g>
    <g id="xtick_17">
     <g id="line2d_17">
      <g>
       <use xlink:href="#m89cb4b0393" x="876.158562" y="771.72" style="fill: #ffffff; stroke: #ffffff; stroke-width: 0.8"/>
      </g>
     </g>
     <g id="text_17">
      <!-- 16 -->
      <g style="fill: #ffffff" transform="translate(870.158562 786.02) scale(0.1 -0.1)">
       <use xlink:href="#JetBrainsMono-Regular-31"/>
       <use xlink:href="#JetBrainsMono-Regular-36" transform="translate(59.999985 0)"/>
      </g>
     </g>
    </g>
    <g id="xtick_18">
     <g id="line2d_18">
      <g>
       <use xlink:href="#m89cb4b0393" x="923.346723" y="771.72" style="fill: #ffffff; stroke: #ffffff; stroke-width: 0.8"/>
      </g>
     </g>
     <g id="text_18">
      <!-- 17 -->
      <g style="fill: #ffffff" transform="translate(917.346723 786.02) scale(0.1 -0.1)">
       <use xlink:href="#JetBrainsMono-Regular-31"/>
       <use xlink:href="#JetBrainsMono-Regular-37" transform="translate(59.999985 0)"/>
      </g>
     </g>
    </g>
    <g id="xtick_19">
     <g id="line2d_19">
      <g>
       <use xlink:href="#m89cb4b0393" x="970.534884" y="771.72" style="fill: #ffffff; stroke: #ffffff; stroke-width: 0.8"/>
      </g>
     </g>
     <g id="text_19">
      <!-- 18 -->
      <g style="fill: #ffffff" transform="translate(964.534884 786.02) scale(0.1 -0.1)">
       <use xlink:href="#JetBrainsMono-Regular-31"/>
       <use xlink:href="#JetBrainsMono-Regular-38" transform="translate(59.999985 0)"/>
      </g>
     </g>
    </g>
    <g id="xtick_20">
     <g id="line2d_20">
      <g>
       <use xlink:href="#m89cb4b0393" x="1017.723044" y="771.72" style="fill: #ffffff; stroke: #ffffff; stroke-width: 0.8"/>
      </g>
     </g>
     <g id="text_20">
      <!-- 19 -->
      <g style="fill: #ffffff" transform="translate(1011.723044 786.02) scale(0.1 -0.1)">
       <use xlink:href="#JetBrainsMono-Regular-31"/>
       <use xlink:href="#JetBrainsMono-Regular-39" transform="translate(59.999985 0)"/>
      </g>
     </g>
    </g>
    <g id="xtick_21">
     <g id="line2d_21">
      <g>
       <use xlink:href="#m89cb4b0393" x="1064.911205" y="771.72" style="fill: #ffffff; stroke: #ffffff; stroke-width: 0.8"/>
      </g>
     </g>
     <g id="text_21">
      <!-- 20 -->
      <g style="fill: #ffffff" transform="translate(1058.911205 786.02) scale(0.1 -0.1)">
       <use xlink:href="#JetBrainsMono-Regular-32"/>
       <use xlink:href="#JetBrainsMono-Regular-30" transform="translate(59.999985 0)"/>
      </g>
     </g>
    </g>
    <g id="xtick_22">
     <g id="line2d_22">
      <g>
       <use xlink:href="#m89cb4b0393" x="1112.099366" y="771.72" style="fill: #ffffff; stroke: #ffffff; stroke-width: 0.8"/>
      </g>
     </g>
     <g id="text_22">
      <!-- 21 -->
      <g style="fill: #ffffff" transform="translate(1106.099366 786.02) scale(0.1 -0.1)">
       <use xlink:href="#JetBrainsMono-Regular-32"/>
       <use xlink:href="#JetBrainsMono-Regular-31" transform="translate(59.999985 0)"/>
      </g>
     </g>
    </g>
    <g id="xtick_23">
     <g id="line2d_23">
      <g>
       <use xlink:href="#m89cb4b0393" x="1159.287526" y="771.72" style="fill: #ffffff; stroke: #ffffff; stroke-width: 0.8"/>
      </g>
     </g>
     <g id="text_23">
      <!-- 22 -->
      <g style="fill: #ffffff" transform="translate(1153.287526 786.02) scale(0.1 -0.1)">
       <use xlink:href="#JetBrainsMono-Regular-32"/>
       <use xlink:href="#JetBrainsMono-Regular-32" transform="translate(59.999985 0)"/>
      </g>
     </g>
    </g>
    <g id="xtick_24">
     <g id="line2d_24">
      <g>
       <use xlink:href="#m89cb4b0393" x="1206.475687" y="771.72" style="fill: #ffffff; stroke: #ffffff; stroke-width: 0.8"/>
      </g>
     </g>
     <g id="text_24">
      <!-- 23 -->
      <g style="fill: #ffffff" transform="translate(1200.475687 786.02) scale(0.1 -0.1)">
       <use xlink:href="#JetBrainsMono-Regular-32"/>
       <use xlink:href="#JetBrainsMono-Regular-33" transform="translate(59.999985 0)"/>
      </g>
     </g>
    </g>
    <g id="xtick_25">
     <g id="line2d_25">
      <g>
       <use xlink:href="#m89cb4b0393" x="1253.663848" y="771.72" style="fill: #ffffff; stroke: #ffffff; stroke-width: 0.8"/>
      </g>
     </g>
     <g id="text_25">
      <!-- 24 -->
      <g style="fill: #ffffff" transform="translate(1247.663848 786.02) scale(0.1 -0.1)">
       <use xlink:href="#JetBrainsMono-Regular-32"/>
       <use xlink:href="#JetBrainsMono-Regular-34" transform="translate(59.999985 0)"/>
      </g>
     </g>
    </g>
    <g id="xtick_26">
     <g id="line2d_26">
      <g>
       <use xlink:href="#m89cb4b0393" x="1300.852008" y="771.72" style="fill: #ffffff; stroke: #ffffff; stroke-width: 0.8"/>
      </g>
     </g>
     <g id="text_26">
      <!-- 25 -->
      <g style="fill: #ffffff" transform="translate(1294.852008 786.02) scale(0.1 -0.1)">
       <use xlink:href="#JetBrainsMono-Regular-32"/>
       <use xlink:href="#JetBrainsMono-Regular-35" transform="translate(59.999985 0)"/>
      </g>
     </g>
    </g>
    <g id="text_27">
     <!-- Shift Key -->
     <g style="fill: #ffffff" transform="translate(684 799.590312) scale(0.1 -0.1)">
      <defs>
       <path id="JetBrainsMono-Regular-53" d="M 1946 -64 
Q 1485 -64 1155 89 
Q 826 243 646 531 
Q 467 819 461 1216 
L 1037 1216 
Q 1037 864 1277 659 
Q 1517 454 1946 454 
Q 2349 454 2576 652 
Q 2803 851 2803 1203 
Q 2803 1485 2652 1696 
Q 2502 1907 2221 1990 
L 1587 2189 
Q 1107 2336 848 2681 
Q 589 3027 589 3494 
Q 589 3872 758 4150 
Q 928 4429 1235 4585 
Q 1542 4742 1958 4742 
Q 2573 4742 2944 4400 
Q 3315 4058 3322 3488 
L 2746 3488 
Q 2746 3834 2538 4029 
Q 2330 4224 1952 4224 
Q 1581 4224 1373 4045 
Q 1165 3866 1165 3546 
Q 1165 3258 1318 3046 
Q 1472 2835 1760 2746 
L 2400 2541 
Q 2867 2394 3123 2042 
Q 3379 1690 3379 1216 
Q 3379 832 3200 544 
Q 3021 256 2697 96 
Q 2374 -64 1946 -64 
z
" transform="scale(0.015625)"/>
       <path id="JetBrainsMono-Regular-68" d="M 589 0 
L 589 4672 
L 1165 4672 
L 1165 3520 
L 1165 2848 
L 1286 2848 
L 1165 2714 
Q 1165 3130 1414 3357 
Q 1664 3584 2106 3584 
Q 2637 3584 2950 3257 
Q 3264 2931 3264 2368 
L 3264 0 
L 2688 0 
L 2688 2304 
Q 2688 2682 2486 2890 
Q 2285 3098 1939 3098 
Q 1581 3098 1373 2874 
Q 1165 2650 1165 2240 
L 1165 0 
L 589 0 
z
" transform="scale(0.015625)"/>
       <path id="JetBrainsMono-Regular-69" d="M 544 0 
L 544 525 
L 1792 525 
L 1792 2995 
L 704 2995 
L 704 3520 
L 2368 3520 
L 2368 525 
L 3552 525 
L 3552 0 
L 544 0 
z
M 2016 4154 
Q 1805 4154 1683 4262 
Q 1562 4371 1562 4557 
Q 1562 4749 1683 4861 
Q 1805 4973 2016 4973 
Q 2227 4973 2348 4861 
Q 2470 4749 2470 4557 
Q 2470 4371 2348 4262 
Q 2227 4154 2016 4154 
z
" transform="scale(0.015625)"/>
       <path id="JetBrainsMono-Regular-66" d="M 1408 0 
L 1408 2643 
L 384 2643 
L 384 3168 
L 1408 3168 
L 1408 3776 
Q 1408 4192 1670 4432 
Q 1933 4672 2394 4672 
L 3424 4672 
L 3424 4147 
L 2394 4147 
Q 2195 4147 2089 4054 
Q 1984 3962 1984 3776 
L 1984 3168 
L 3424 3168 
L 3424 2643 
L 1984 2643 
L 1984 0 
L 1408 0 
z
" transform="scale(0.015625)"/>
       <path id="JetBrainsMono-Regular-74" d="M 2304 0 
Q 1850 0 1597 243 
Q 1344 486 1344 928 
L 1344 2995 
L 352 2995 
L 352 3520 
L 1344 3520 
L 1344 4512 
L 1920 4512 
L 1920 3520 
L 3328 3520 
L 3328 2995 
L 1920 2995 
L 1920 928 
Q 1920 525 2304 525 
L 3264 525 
L 3264 0 
L 2304 0 
z
" transform="scale(0.015625)"/>
       <path id="JetBrainsMono-Regular-20" transform="scale(0.015625)"/>
       <path id="JetBrainsMono-Regular-4b" d="M 589 0 
L 589 4672 
L 1165 4672 
L 1165 2669 
L 1856 2669 
L 2893 4672 
L 3520 4672 
L 2362 2426 
L 3584 0 
L 2925 0 
L 1837 2163 
L 1165 2163 
L 1165 0 
L 589 0 
z
" transform="scale(0.015625)"/>
       <path id="JetBrainsMono-Regular-65" d="M 1920 -64 
Q 1504 -64 1193 102 
Q 883 269 713 573 
Q 544 877 544 1280 
L 544 2240 
Q 544 2650 713 2950 
Q 883 3251 1193 3417 
Q 1504 3584 1920 3584 
Q 2336 3584 2646 3417 
Q 2957 3251 3126 2950 
Q 3296 2650 3296 2240 
L 3296 1619 
L 1107 1619 
L 1107 1280 
Q 1107 864 1318 643 
Q 1530 422 1920 422 
Q 2253 422 2457 540 
Q 2662 659 2707 896 
L 3283 896 
Q 3226 454 2851 195 
Q 2477 -64 1920 -64 
z
M 2733 2003 
L 2733 2240 
Q 2733 2656 2525 2880 
Q 2317 3104 1920 3104 
Q 1530 3104 1318 2880 
Q 1107 2656 1107 2240 
L 1107 2054 
L 2778 2054 
L 2733 2003 
z
" transform="scale(0.015625)"/>
       <path id="JetBrainsMono-Regular-79" d="M 1139 -1152 
L 1658 218 
L 352 3520 
L 992 3520 
L 1811 1344 
Q 1856 1235 1894 1084 
Q 1933 934 1958 832 
Q 1984 934 2022 1084 
Q 2061 1235 2099 1344 
L 2867 3520 
L 3488 3520 
L 1754 -1152 
L 1139 -1152 
z
" transform="scale(0.015625)"/>
      </defs>
      <use xlink:href="#JetBrainsMono-Regular-53"/>
      <use xlink:href="#JetBrainsMono-Regular-68" transform="translate(59.999985 0)"/>
      <use xlink:href="#JetBrainsMono-Regular-69" transform="translate(119.999969 0)"/>
      <use xlink:href="#JetBrainsMono-Regular-66" transform="translate(179.999954 0)"/>
      <use xlink:href="#JetBrainsMono-Regular-74" transform="translate(239.999939 0)"/>
      <use xlink:href="#JetBrainsMono-Regular-20" transform="translate(299.999924 0)"/>
      <use xlink:href="#JetBrainsMono-Regular-4b" transform="translate(359.999908 0)"/>
      <use xlink:href="#JetBrainsMono-Regular-65" transform="translate(419.999893 0)"/>
      <use xlink:href="#JetBrainsMono-Regular-79" transform="translate(479.999878 0)"/>
     </g>
    </g>
   </g>
   <g id="matplotlib.axis_2">
    <g id="ytick_1">
     <g id="line2d_27">
      <defs>
       <path id="m6376222428" d="M 0 0 
L -3.5 0 
" style="stroke: #ffffff; stroke-width: 0.8"/>
      </defs>
      <g>
       <use xlink:href="#m6376222428" x="41.4" y="771.72" style="fill: #ffffff; stroke: #ffffff; stroke-width: 0.8"/>
      </g>
     </g>
     <g id="text_28">
      <!-- 0 -->
      <g style="fill: #ffffff" transform="translate(28.4 775.37) scale(0.1 -0.1)">
       <use xlink:href="#JetBrainsMono-Regular-30"/>
      </g>
     </g>
    </g>
    <g id="ytick_2">
     <g id="line2d_28">
      <g>
       <use xlink:href="#m6376222428" x="41.4" y="637.20895" style="fill: #ffffff; stroke: #ffffff; stroke-width: 0.8"/>
      </g>
     </g>
     <g id="text_29">
      <!-- 2 -->
      <g style="fill: #ffffff" transform="translate(28.4 640.85895) scale(0.1 -0.1)">
       <use xlink:href="#JetBrainsMono-Regular-32"/>
      </g>
     </g>
    </g>
    <g id="ytick_3">
     <g id="line2d_29">
      <g>
       <use xlink:href="#m6376222428" x="41.4" y="502.697901" style="fill: #ffffff; stroke: #ffffff; stroke-width: 0.8"/>
      </g>
     </g>
     <g id="text_30">
      <!-- 4 -->
      <g style="fill: #ffffff" transform="translate(28.4 506.347901) scale(0.1 -0.1)">
       <use xlink:href="#JetBrainsMono-Regular-34"/>
      </g>
     </g>
    </g>
    <g id="ytick_4">
     <g id="line2d_30">
      <g>
       <use xlink:href="#m6376222428" x="41.4" y="368.186851" style="fill: #ffffff; stroke: #ffffff; stroke-width: 0.8"/>
      </g>
     </g>
     <g id="text_31">
      <!-- 6 -->
      <g style="fill: #ffffff" transform="translate(28.4 371.836851) scale(0.1 -0.1)">
       <use xlink:href="#JetBrainsMono-Regular-36"/>
      </g>
     </g>
    </g>
    <g id="ytick_5">
     <g id="line2d_31">
      <g>
       <use xlink:href="#m6376222428" x="41.4" y="233.675801" style="fill: #ffffff; stroke: #ffffff; stroke-width: 0.8"/>
      </g>
     </g>
     <g id="text_32">
      <!-- 8 -->
      <g style="fill: #ffffff" transform="translate(28.4 237.325801) scale(0.1 -0.1)">
       <use xlink:href="#JetBrainsMono-Regular-38"/>
      </g>
     </g>
    </g>
    <g id="ytick_6">
     <g id="line2d_32">
      <g>
       <use xlink:href="#m6376222428" x="41.4" y="99.164752" style="fill: #ffffff; stroke: #ffffff; stroke-width: 0.8"/>
      </g>
     </g>
     <g id="text_33">
      <!-- 10 -->
      <g style="fill: #ffffff" transform="translate(22.4 102.814752) scale(0.1 -0.1)">
       <use xlink:href="#JetBrainsMono-Regular-31"/>
       <use xlink:href="#JetBrainsMono-Regular-30" transform="translate(59.999985 0)"/>
      </g>
     </g>
    </g>
    <g id="text_34">
     <!-- Chi Squared $(1/χ^2)$ -->
     <g style="fill: #ffffff" transform="translate(16.3 447.85) rotate(-90) scale(0.1 -0.1)">
      <defs>
       <path id="JetBrainsMono-Regular-43" d="M 1946 -64 
Q 1523 -64 1212 96 
Q 902 256 732 560 
Q 563 864 563 1280 
L 563 3392 
Q 563 3814 732 4115 
Q 902 4416 1212 4576 
Q 1523 4736 1946 4736 
Q 2368 4736 2675 4573 
Q 2982 4410 3148 4109 
Q 3315 3808 3315 3392 
L 2739 3392 
Q 2739 3789 2531 4003 
Q 2323 4218 1946 4218 
Q 1568 4218 1353 4006 
Q 1139 3795 1139 3398 
L 1139 1280 
Q 1139 883 1353 668 
Q 1568 454 1946 454 
Q 2323 454 2531 668 
Q 2739 883 2739 1280 
L 3315 1280 
Q 3315 870 3148 566 
Q 2982 262 2675 99 
Q 2368 -64 1946 -64 
z
" transform="scale(0.015625)"/>
       <path id="JetBrainsMono-Regular-71" d="M 2675 -1152 
L 2675 -128 
L 2688 672 
L 2560 672 
L 2675 806 
Q 2675 410 2412 173 
Q 2150 -64 1715 -64 
Q 1184 -64 873 288 
Q 563 640 563 1248 
L 563 2278 
Q 563 2886 876 3235 
Q 1190 3584 1715 3584 
Q 2150 3584 2412 3350 
Q 2675 3117 2675 2714 
L 2560 2848 
L 2675 2848 
L 2675 3520 
L 3251 3520 
L 3251 -1152 
L 2675 -1152 
z
M 1907 435 
Q 2266 435 2470 659 
Q 2675 883 2675 1280 
L 2675 2240 
Q 2675 2637 2470 2861 
Q 2266 3085 1907 3085 
Q 1542 3085 1340 2867 
Q 1139 2650 1139 2240 
L 1139 1280 
Q 1139 870 1340 652 
Q 1542 435 1907 435 
z
" transform="scale(0.015625)"/>
       <path id="JetBrainsMono-Regular-75" d="M 1914 -64 
Q 1306 -64 941 297 
Q 576 659 576 1280 
L 576 3520 
L 1152 3520 
L 1152 1280 
Q 1152 883 1357 662 
Q 1562 442 1914 442 
Q 2272 442 2480 662 
Q 2688 883 2688 1280 
L 2688 3520 
L 3264 3520 
L 3264 1280 
Q 3264 659 2893 297 
Q 2522 -64 1914 -64 
z
" transform="scale(0.015625)"/>
       <path id="JetBrainsMono-Regular-61" d="M 1613 -64 
Q 1056 -64 736 221 
Q 416 506 416 992 
Q 416 1485 736 1766 
Q 1056 2048 1600 2048 
L 2688 2048 
L 2688 2400 
Q 2688 2726 2493 2902 
Q 2298 3078 1939 3078 
Q 1626 3078 1414 2947 
Q 1203 2816 1171 2592 
L 595 2592 
Q 653 3046 1024 3315 
Q 1395 3584 1952 3584 
Q 2560 3584 2912 3270 
Q 3264 2957 3264 2419 
L 3264 0 
L 2701 0 
L 2701 672 
L 2605 672 
L 2701 768 
Q 2701 384 2403 160 
Q 2106 -64 1613 -64 
z
M 1754 390 
Q 2163 390 2425 595 
Q 2688 800 2688 1120 
L 2688 1619 
L 1613 1619 
Q 1325 1619 1158 1459 
Q 992 1299 992 1024 
Q 992 730 1193 560 
Q 1395 390 1754 390 
z
" transform="scale(0.015625)"/>
       <path id="JetBrainsMono-Regular-72" d="M 710 0 
L 710 3520 
L 1274 3520 
L 1274 2848 
L 1408 2848 
L 1222 2432 
Q 1222 3002 1468 3293 
Q 1715 3584 2202 3584 
Q 2758 3584 3088 3235 
Q 3418 2886 3418 2291 
L 3418 2080 
L 2842 2080 
L 2842 2240 
Q 2842 2656 2640 2877 
Q 2438 3098 2067 3098 
Q 1702 3098 1494 2874 
Q 1286 2650 1286 2240 
L 1286 0 
L 710 0 
z
" transform="scale(0.015625)"/>
       <path id="JetBrainsMono-Regular-64" d="M 1715 -64 
Q 1190 -64 867 288 
Q 544 640 544 1242 
L 544 2272 
Q 544 2880 864 3232 
Q 1184 3584 1715 3584 
Q 2150 3584 2412 3347 
Q 2675 3110 2675 2714 
L 2560 2848 
L 2688 2848 
L 2675 3648 
L 2675 4672 
L 3251 4672 
L 3251 0 
L 2675 0 
L 2675 672 
L 2560 672 
L 2675 806 
Q 2675 403 2412 169 
Q 2150 -64 1715 -64 
z
M 1907 435 
Q 2266 435 2470 659 
Q 2675 883 2675 1280 
L 2675 2240 
Q 2675 2637 2470 2861 
Q 2266 3085 1907 3085 
Q 1542 3085 1331 2867 
Q 1120 2650 1120 2240 
L 1120 1280 
Q 1120 870 1331 652 
Q 1542 435 1907 435 
z
" transform="scale(0.015625)"/>
       <path id="DejaVuSans-28" d="M 1984 4856 
Q 1566 4138 1362 3434 
Q 1159 2731 1159 2009 
Q 1159 1288 1364 580 
Q 1569 -128 1984 -844 
L 1484 -844 
Q 1016 -109 783 600 
Q 550 1309 550 2009 
Q 550 2706 781 3412 
Q 1013 4119 1484 4856 
L 1984 4856 
z
" transform="scale(0.015625)"/>
       <path id="DejaVuSans-31" d="M 794 531 
L 1825 531 
L 1825 4091 
L 703 3866 
L 703 4441 
L 1819 4666 
L 2450 4666 
L 2450 531 
L 3481 531 
L 3481 0 
L 794 0 
L 794 531 
z
" transform="scale(0.015625)"/>
       <path id="DejaVuSans-2f" d="M 1625 4666 
L 2156 4666 
L 531 -594 
L 0 -594 
L 1625 4666 
z
" transform="scale(0.015625)"/>
       <path id="DejaVuSans-Oblique-3c7" d="M 1922 -781 
L 1691 416 
L 394 -1334 
L -284 -1334 
L 1553 1141 
L 1269 2613 
Q 1194 3006 713 3006 
L 559 3006 
L 653 3500 
L 872 3494 
Q 1675 3472 1775 2950 
L 2006 1753 
L 3303 3503 
L 3981 3503 
L 2144 1028 
L 2428 -444 
Q 2503 -838 2984 -838 
L 3138 -838 
L 3044 -1331 
L 2825 -1325 
Q 2022 -1303 1922 -781 
z
" transform="scale(0.015625)"/>
       <path id="DejaVuSans-32" d="M 1228 531 
L 3431 531 
L 3431 0 
L 469 0 
L 469 531 
Q 828 903 1448 1529 
Q 2069 2156 2228 2338 
Q 2531 2678 2651 2914 
Q 2772 3150 2772 3378 
Q 2772 3750 2511 3984 
Q 2250 4219 1831 4219 
Q 1534 4219 1204 4116 
Q 875 4013 500 3803 
L 500 4441 
Q 881 4594 1212 4672 
Q 1544 4750 1819 4750 
Q 2544 4750 2975 4387 
Q 3406 4025 3406 3419 
Q 3406 3131 3298 2873 
Q 3191 2616 2906 2266 
Q 2828 2175 2409 1742 
Q 1991 1309 1228 531 
z
" transform="scale(0.015625)"/>
       <path id="DejaVuSans-29" d="M 513 4856 
L 1013 4856 
Q 1481 4119 1714 3412 
Q 1947 2706 1947 2009 
Q 1947 1309 1714 600 
Q 1481 -109 1013 -844 
L 513 -844 
Q 928 -128 1133 580 
Q 1338 1288 1338 2009 
Q 1338 2731 1133 3434 
Q 928 4138 513 4856 
z
" transform="scale(0.015625)"/>
      </defs>
      <use xlink:href="#JetBrainsMono-Regular-43" transform="translate(0 0.765625)"/>
      <use xlink:href="#JetBrainsMono-Regular-68" transform="translate(59.999985 0.765625)"/>
      <use xlink:href="#JetBrainsMono-Regular-69" transform="translate(119.999969 0.765625)"/>
      <use xlink:href="#JetBrainsMono-Regular-20" transform="translate(179.999954 0.765625)"/>
      <use xlink:href="#JetBrainsMono-Regular-53" transform="translate(239.999939 0.765625)"/>
      <use xlink:href="#JetBrainsMono-Regular-71" transform="translate(299.999924 0.765625)"/>
      <use xlink:href="#JetBrainsMono-Regular-75" transform="translate(359.999908 0.765625)"/>
      <use xlink:href="#JetBrainsMono-Regular-61" transform="translate(419.999893 0.765625)"/>
      <use xlink:href="#JetBrainsMono-Regular-72" transform="translate(479.999878 0.765625)"/>
      <use xlink:href="#JetBrainsMono-Regular-65" transform="translate(539.999863 0.765625)"/>
      <use xlink:href="#JetBrainsMono-Regular-64" transform="translate(599.999847 0.765625)"/>
      <use xlink:href="#JetBrainsMono-Regular-20" transform="translate(659.999832 0.765625)"/>
      <use xlink:href="#DejaVuSans-28" transform="translate(719.999817 0.765625)"/>
      <use xlink:href="#DejaVuSans-31" transform="translate(759.013489 0.765625)"/>
      <use xlink:href="#DejaVuSans-2f" transform="translate(822.636536 0.765625)"/>
      <use xlink:href="#DejaVuSans-Oblique-3c7" transform="translate(856.327942 0.765625)"/>
      <use xlink:href="#DejaVuSans-32" transform="translate(919.980338 39.046875) scale(0.7)"/>
      <use xlink:href="#DejaVuSans-29" transform="translate(967.250846 0.765625)"/>
     </g>
    </g>
   </g>
   <g id="patch_29">
    <path d="M 41.4 771.72 
L 41.4 23.28 
" style="fill: none; stroke: #ffffff; stroke-width: 0.8; stroke-linejoin: miter; stroke-linecap: square"/>
   </g>
   <g id="patch_30">
    <path d="M 1380.6 771.72 
L 1380.6 23.28 
" style="fill: none; stroke: #ffffff; stroke-width: 0.8; stroke-linejoin: miter; stroke-linecap: square"/>
   </g>
   <g id="patch_31">
    <path d="M 41.4 771.72 
L 1380.6 771.72 
" style="fill: none; stroke: #ffffff; stroke-width: 0.8; stroke-linejoin: miter; stroke-linecap: square"/>
   </g>
   <g id="patch_32">
    <path d="M 41.4 23.28 
L 1380.6 23.28 
" style="fill: none; stroke: #ffffff; stroke-width: 0.8; stroke-linejoin: miter; stroke-linecap: square"/>
   </g>
   <g id="text_35">
    <!-- Chi Squared Test for monogram fitness (Caesar Cipher) -->
    <g style="fill: #ffffff" transform="translate(520.2 17.28) scale(0.12 -0.12)">
     <defs>
      <path id="JetBrainsMono-Regular-54" d="M 1632 0 
L 1632 4154 
L 352 4154 
L 352 4678 
L 3488 4678 
L 3488 4154 
L 2208 4154 
L 2208 0 
L 1632 0 
z
" transform="scale(0.015625)"/>
      <path id="JetBrainsMono-Regular-73" d="M 1811 -51 
Q 1453 -51 1187 61 
Q 922 173 765 377 
Q 608 582 576 864 
L 1152 864 
Q 1190 678 1360 569 
Q 1530 461 1811 461 
L 2080 461 
Q 2419 461 2585 598 
Q 2752 736 2752 966 
Q 2752 1190 2601 1321 
Q 2451 1453 2157 1498 
L 1683 1574 
Q 1165 1664 912 1897 
Q 659 2131 659 2579 
Q 659 3053 960 3312 
Q 1261 3571 1862 3571 
L 2106 3571 
Q 2611 3571 2918 3334 
Q 3226 3098 3290 2694 
L 2714 2694 
Q 2675 2861 2521 2960 
Q 2368 3059 2106 3059 
L 1862 3059 
Q 1536 3059 1385 2937 
Q 1235 2816 1235 2573 
Q 1235 2355 1363 2252 
Q 1491 2150 1766 2106 
L 2240 2029 
Q 2810 1939 3069 1696 
Q 3328 1453 3328 992 
Q 3328 506 3017 227 
Q 2707 -51 2080 -51 
L 1811 -51 
z
" transform="scale(0.015625)"/>
      <path id="JetBrainsMono-Regular-6f" d="M 1920 -51 
Q 1498 -51 1190 109 
Q 883 269 713 573 
Q 544 877 544 1293 
L 544 2227 
Q 544 2650 713 2950 
Q 883 3251 1190 3411 
Q 1498 3571 1920 3571 
Q 2342 3571 2649 3411 
Q 2957 3251 3126 2950 
Q 3296 2650 3296 2234 
L 3296 1293 
Q 3296 877 3126 573 
Q 2957 269 2649 109 
Q 2342 -51 1920 -51 
z
M 1920 461 
Q 2298 461 2509 672 
Q 2720 883 2720 1293 
L 2720 2227 
Q 2720 2637 2509 2848 
Q 2298 3059 1920 3059 
Q 1549 3059 1334 2848 
Q 1120 2637 1120 2227 
L 1120 1293 
Q 1120 883 1334 672 
Q 1549 461 1920 461 
z
" transform="scale(0.015625)"/>
      <path id="JetBrainsMono-Regular-6d" d="M 422 0 
L 422 3520 
L 928 3520 
L 928 3098 
L 1043 3098 
L 954 2944 
Q 954 3238 1110 3411 
Q 1267 3584 1536 3584 
Q 1830 3584 1990 3366 
Q 2150 3149 2150 2752 
L 1978 3098 
L 2246 3098 
L 2125 2944 
Q 2125 3238 2288 3411 
Q 2451 3584 2720 3584 
Q 3053 3584 3235 3334 
Q 3418 3085 3418 2675 
L 3418 0 
L 2886 0 
L 2886 2682 
Q 2886 2899 2793 3020 
Q 2701 3142 2522 3142 
Q 2349 3142 2249 3024 
Q 2150 2906 2150 2688 
L 2150 0 
L 1690 0 
L 1690 2682 
Q 1690 2906 1590 3024 
Q 1491 3142 1312 3142 
Q 1133 3142 1043 3024 
Q 954 2906 954 2688 
L 954 0 
L 422 0 
z
" transform="scale(0.015625)"/>
      <path id="JetBrainsMono-Regular-6e" d="M 589 0 
L 589 3520 
L 1165 3520 
L 1165 2848 
L 1286 2848 
L 1165 2714 
Q 1165 3130 1414 3357 
Q 1664 3584 2106 3584 
Q 2637 3584 2950 3257 
Q 3264 2931 3264 2368 
L 3264 0 
L 2688 0 
L 2688 2304 
Q 2688 2682 2486 2883 
Q 2285 3085 1939 3085 
Q 1581 3085 1373 2867 
Q 1165 2650 1165 2240 
L 1165 0 
L 589 0 
z
" transform="scale(0.015625)"/>
      <path id="JetBrainsMono-Regular-67" d="M 1030 -1152 
L 1030 -627 
L 2150 -627 
Q 2419 -627 2544 -505 
Q 2669 -384 2669 -128 
L 2669 320 
L 2682 960 
L 2566 960 
L 2675 1056 
Q 2675 672 2419 448 
Q 2163 224 1734 224 
Q 1190 224 876 579 
Q 563 934 563 1536 
L 563 2278 
Q 563 2880 876 3232 
Q 1190 3584 1734 3584 
Q 2163 3584 2419 3360 
Q 2675 3136 2675 2752 
L 2566 2848 
L 2675 2848 
L 2675 3520 
L 3245 3520 
L 3245 -128 
Q 3245 -602 2953 -877 
Q 2662 -1152 2144 -1152 
L 1030 -1152 
z
M 1907 723 
Q 2266 723 2470 947 
Q 2675 1171 2675 1568 
L 2675 2240 
Q 2675 2637 2470 2861 
Q 2266 3085 1907 3085 
Q 1542 3085 1340 2867 
Q 1139 2650 1139 2240 
L 1139 1568 
Q 1139 1158 1340 940 
Q 1542 723 1907 723 
z
" transform="scale(0.015625)"/>
      <path id="JetBrainsMono-Regular-28" d="M 3104 -768 
Q 2195 -544 1689 115 
Q 1184 774 1184 1728 
L 1184 2880 
Q 1184 3507 1417 4016 
Q 1651 4525 2083 4877 
Q 2515 5229 3104 5376 
L 3104 4832 
Q 2694 4736 2393 4464 
Q 2093 4192 1926 3789 
Q 1760 3386 1760 2880 
L 1760 1728 
Q 1760 1235 1923 832 
Q 2086 429 2390 163 
Q 2694 -102 3104 -198 
L 3104 -768 
z
" transform="scale(0.015625)"/>
      <path id="JetBrainsMono-Regular-70" d="M 589 -1152 
L 589 3520 
L 1165 3520 
L 1165 2848 
L 1280 2848 
L 1165 2714 
Q 1165 3117 1430 3350 
Q 1696 3584 2131 3584 
Q 2662 3584 2979 3235 
Q 3296 2886 3296 2278 
L 3296 1248 
Q 3296 845 3152 550 
Q 3008 256 2749 96 
Q 2490 -64 2131 -64 
Q 1702 -64 1433 173 
Q 1165 410 1165 806 
L 1280 672 
L 1152 672 
L 1165 -128 
L 1165 -1152 
L 589 -1152 
z
M 1939 435 
Q 2304 435 2512 652 
Q 2720 870 2720 1280 
L 2720 2240 
Q 2720 2650 2512 2867 
Q 2304 3085 1939 3085 
Q 1587 3085 1376 2861 
Q 1165 2637 1165 2240 
L 1165 1280 
Q 1165 883 1376 659 
Q 1587 435 1939 435 
z
" transform="scale(0.015625)"/>
      <path id="JetBrainsMono-Regular-29" d="M 736 -768 
L 736 -198 
Q 1152 -102 1453 163 
Q 1754 429 1917 832 
Q 2080 1235 2080 1728 
L 2080 2880 
Q 2080 3386 1913 3789 
Q 1747 4192 1446 4464 
Q 1146 4736 736 4832 
L 736 5376 
Q 1331 5229 1760 4877 
Q 2189 4525 2422 4016 
Q 2656 3507 2656 2880 
L 2656 1728 
Q 2656 774 2150 115 
Q 1645 -544 736 -768 
z
" transform="scale(0.015625)"/>
     </defs>
     <use xlink:href="#JetBrainsMono-Regular-43"/>
     <use xlink:href="#JetBrainsMono-Regular-68" transform="translate(59.999985 0)"/>
     <use xlink:href="#JetBrainsMono-Regular-69" transform="translate(119.999969 0)"/>
     <use xlink:href="#JetBrainsMono-Regular-20" transform="translate(179.999954 0)"/>
     <use xlink:href="#JetBrainsMono-Regular-53" transform="translate(239.999939 0)"/>
     <use xlink:href="#JetBrainsMono-Regular-71" transform="translate(299.999924 0)"/>
     <use xlink:href="#JetBrainsMono-Regular-75" transform="translate(359.999908 0)"/>
     <use xlink:href="#JetBrainsMono-Regular-61" transform="translate(419.999893 0)"/>
     <use xlink:href="#JetBrainsMono-Regular-72" transform="translate(479.999878 0)"/>
     <use xlink:href="#JetBrainsMono-Regular-65" transform="translate(539.999863 0)"/>
     <use xlink:href="#JetBrainsMono-Regular-64" transform="translate(599.999847 0)"/>
     <use xlink:href="#JetBrainsMono-Regular-20" transform="translate(659.999832 0)"/>
     <use xlink:href="#JetBrainsMono-Regular-54" transform="translate(719.999817 0)"/>
     <use xlink:href="#JetBrainsMono-Regular-65" transform="translate(779.999802 0)"/>
     <use xlink:href="#JetBrainsMono-Regular-73" transform="translate(839.999786 0)"/>
     <use xlink:href="#JetBrainsMono-Regular-74" transform="translate(899.999771 0)"/>
     <use xlink:href="#JetBrainsMono-Regular-20" transform="translate(959.999756 0)"/>
     <use xlink:href="#JetBrainsMono-Regular-66" transform="translate(1019.999741 0)"/>
     <use xlink:href="#JetBrainsMono-Regular-6f" transform="translate(1079.999725 0)"/>
     <use xlink:href="#JetBrainsMono-Regular-72" transform="translate(1139.99971 0)"/>
     <use xlink:href="#JetBrainsMono-Regular-20" transform="translate(1199.999695 0)"/>
     <use xlink:href="#JetBrainsMono-Regular-6d" transform="translate(1259.99968 0)"/>
     <use xlink:href="#JetBrainsMono-Regular-6f" transform="translate(1319.999664 0)"/>
     <use xlink:href="#JetBrainsMono-Regular-6e" transform="translate(1379.999649 0)"/>
     <use xlink:href="#JetBrainsMono-Regular-6f" transform="translate(1439.999634 0)"/>
     <use xlink:href="#JetBrainsMono-Regular-67" transform="translate(1499.999619 0)"/>
     <use xlink:href="#JetBrainsMono-Regular-72" transform="translate(1559.999603 0)"/>
     <use xlink:href="#JetBrainsMono-Regular-61" transform="translate(1619.999588 0)"/>
     <use xlink:href="#JetBrainsMono-Regular-6d" transform="translate(1679.999573 0)"/>
     <use xlink:href="#JetBrainsMono-Regular-20" transform="translate(1739.999557 0)"/>
     <use xlink:href="#JetBrainsMono-Regular-66" transform="translate(1799.999542 0)"/>
     <use xlink:href="#JetBrainsMono-Regular-69" transform="translate(1859.999527 0)"/>
     <use xlink:href="#JetBrainsMono-Regular-74" transform="translate(1919.999512 0)"/>
     <use xlink:href="#JetBrainsMono-Regular-6e" transform="translate(1979.999496 0)"/>
     <use xlink:href="#JetBrainsMono-Regular-65" transform="translate(2039.999481 0)"/>
     <use xlink:href="#JetBrainsMono-Regular-73" transform="translate(2099.999466 0)"/>
     <use xlink:href="#JetBrainsMono-Regular-73" transform="translate(2159.999451 0)"/>
     <use xlink:href="#JetBrainsMono-Regular-20" transform="translate(2219.999435 0)"/>
     <use xlink:href="#JetBrainsMono-Regular-28" transform="translate(2279.99942 0)"/>
     <use xlink:href="#JetBrainsMono-Regular-43" transform="translate(2339.999405 0)"/>
     <use xlink:href="#JetBrainsMono-Regular-61" transform="translate(2399.99939 0)"/>
     <use xlink:href="#JetBrainsMono-Regular-65" transform="translate(2459.999374 0)"/>
     <use xlink:href="#JetBrainsMono-Regular-73" transform="translate(2519.999359 0)"/>
     <use xlink:href="#JetBrainsMono-Regular-61" transform="translate(2579.999344 0)"/>
     <use xlink:href="#JetBrainsMono-Regular-72" transform="translate(2639.999329 0)"/>
     <use xlink:href="#JetBrainsMono-Regular-20" transform="translate(2699.999313 0)"/>
     <use xlink:href="#JetBrainsMono-Regular-43" transform="translate(2759.999298 0)"/>
     <use xlink:href="#JetBrainsMono-Regular-69" transform="translate(2819.999283 0)"/>
     <use xlink:href="#JetBrainsMono-Regular-70" transform="translate(2879.999268 0)"/>
     <use xlink:href="#JetBrainsMono-Regular-68" transform="translate(2939.999252 0)"/>
     <use xlink:href="#JetBrainsMono-Regular-65" transform="translate(2999.999237 0)"/>
     <use xlink:href="#JetBrainsMono-Regular-72" transform="translate(3059.999222 0)"/>
     <use xlink:href="#JetBrainsMono-Regular-29" transform="translate(3119.999207 0)"/>
    </g>
   </g>
  </g>
 </g>
 <defs>
  <clipPath id="p4b56497fe4">
   <rect x="41.4" y="23.28" width="1339.2" height="748.44"/>
  </clipPath>
 </defs>
</svg>
